<svg xmlns="http://www.w3.org/2000/svg" xml:space="preserve" viewBox="0 0 500 500"><path d="M0 0h500v500H0z"/><linearGradient id="a" x1="108.029" x2="382.192" y1="203.388" y2="203.388" gradientUnits="userSpaceOnUse"><stop offset="0" stop-color="#ffcf41"/><stop offset=".197" stop-color="#fcc93b"/><stop offset=".464" stop-color="#f5b72c"/><stop offset=".771" stop-color="#ea9b12"/><stop offset=".899" stop-color="#e48d05"/><stop offset="1" stop-color="#de8806"/></linearGradient><path fill="url(#a)" fill-rule="evenodd" d="M272.86 214.45h34.4l14.99-25.96 14.99-25.95 14.99-25.95H197.94l14.99 25.95h94.34l-14.99 25.95h-64.37l14.99 25.96 14.99 25.96 2.21 3.84 14.94 25.87 2.26-3.75 12.77-22.12c-5.74-9.94-11.47-19.87-17.21-29.8m79.36-129.78H108.03l14.99 25.96 89.91 155.73c12.76 22.09 19.43 33.65 32.19 55.75l14.99-25.96-2.21-3.84c-9.99-17.3-19.98-34.61-29.97-51.91l-29.97-51.91c-14.99-25.95-29.97-51.91-44.96-77.87h214.22l14.99-25.96h-29.99z" clip-rule="evenodd"/><text font-family="MuseoSans-900" font-size="59.916" transform="translate(88.828 385.25)">FRANCIUM</text><linearGradient id="b" x1="93.861" x2="407.462" y1="363.829" y2="363.829" gradientUnits="userSpaceOnUse"><stop offset="0" stop-color="#ffcf41"/><stop offset=".197" stop-color="#fcc93b"/><stop offset=".464" stop-color="#f5b72c"/><stop offset=".771" stop-color="#ea9b12"/><stop offset=".899" stop-color="#e48d05"/><stop offset="1" stop-color="#de8806"/></linearGradient><path fill="url(#b)" d="M93.86 342.41h26.25v8.99h-15.76v8.99h13.06v8.99h-13.06v15.88H93.86v-42.85z"/><linearGradient id="c" x1="93.861" x2="407.462" y1="363.829" y2="363.829" gradientUnits="userSpaceOnUse"><stop offset="0" stop-color="#ffcf41"/><stop offset=".197" stop-color="#fcc93b"/><stop offset=".464" stop-color="#f5b72c"/><stop offset=".771" stop-color="#ea9b12"/><stop offset=".899" stop-color="#e48d05"/><stop offset="1" stop-color="#de8806"/></linearGradient><path fill="url(#c)" d="M126.75 342.41h14.92c4.37 0 6.47.3 8.33 1.02 4.85 1.86 7.91 6.23 7.91 12.46 0 4.55-2.16 9.53-6.41 11.68v.12s.6.78 1.62 2.58l8.33 14.98h-11.69l-7.61-14.44h-4.91v14.44h-10.49v-42.84zm15.05 19.41c3.36 0 5.45-1.86 5.45-5.27 0-3.24-1.2-5.15-6.47-5.15h-3.54v10.43h4.56z"/><linearGradient id="d" x1="93.861" x2="407.462" y1="363.829" y2="363.829" gradientUnits="userSpaceOnUse"><stop offset="0" stop-color="#ffcf41"/><stop offset=".197" stop-color="#fcc93b"/><stop offset=".464" stop-color="#f5b72c"/><stop offset=".771" stop-color="#ea9b12"/><stop offset=".899" stop-color="#e48d05"/><stop offset="1" stop-color="#de8806"/></linearGradient><path fill="url(#d)" d="M189.25 376.26h-13.36l-2.58 8.99h-10.79l14.56-42.84h11.03l14.56 42.84h-10.79l-2.63-8.99zm-6.71-24.09s-.96 4.67-1.74 7.37l-2.46 8.33h8.45l-2.4-8.33c-.78-2.7-1.74-7.37-1.74-7.37h-.11z"/><linearGradient id="e" x1="93.861" x2="407.462" y1="363.829" y2="363.829" gradientUnits="userSpaceOnUse"><stop offset="0" stop-color="#ffcf41"/><stop offset=".197" stop-color="#fcc93b"/><stop offset=".464" stop-color="#f5b72c"/><stop offset=".771" stop-color="#ea9b12"/><stop offset=".899" stop-color="#e48d05"/><stop offset="1" stop-color="#de8806"/></linearGradient><path fill="url(#e)" d="M207.46 342.41h10.61l11.86 20.01c1.68 2.82 3.6 7.31 3.6 7.31h.12s-.48-4.61-.48-7.31v-20.01h10.49v42.84h-10.55l-11.92-19.95c-1.68-2.82-3.6-7.31-3.6-7.31h-.12s.48 4.61.48 7.31v19.95h-10.49v-42.84z"/><linearGradient id="f" x1="93.861" x2="407.462" y1="363.829" y2="363.829" gradientUnits="userSpaceOnUse"><stop offset="0" stop-color="#ffcf41"/><stop offset=".197" stop-color="#fcc93b"/><stop offset=".464" stop-color="#f5b72c"/><stop offset=".771" stop-color="#ea9b12"/><stop offset=".899" stop-color="#e48d05"/><stop offset="1" stop-color="#de8806"/></linearGradient><path fill="url(#f)" d="M273.25 341.69c10.61 0 16.06 6.05 16.06 6.05l-4.85 7.91s-4.79-4.37-10.73-4.37c-8.21 0-12.1 6.05-12.1 12.22 0 6.35 4.19 12.88 12.1 12.88 6.47 0 11.38-5.27 11.38-5.27l5.39 7.67s-6.05 7.19-17.26 7.19c-13.42 0-22.47-9.53-22.47-22.23.01-12.46 9.6-22.05 22.48-22.05z"/><linearGradient id="g" x1="93.861" x2="407.462" y1="363.829" y2="363.829" gradientUnits="userSpaceOnUse"><stop offset="0" stop-color="#ffcf41"/><stop offset=".197" stop-color="#fcc93b"/><stop offset=".464" stop-color="#f5b72c"/><stop offset=".771" stop-color="#ea9b12"/><stop offset=".899" stop-color="#e48d05"/><stop offset="1" stop-color="#de8806"/></linearGradient><path fill="url(#g)" d="M296.85 342.41h10.49v42.84h-10.49v-42.84z"/><linearGradient id="h" x1="93.861" x2="407.462" y1="363.829" y2="363.829" gradientUnits="userSpaceOnUse"><stop offset="0" stop-color="#ffcf41"/><stop offset=".197" stop-color="#fcc93b"/><stop offset=".464" stop-color="#f5b72c"/><stop offset=".771" stop-color="#ea9b12"/><stop offset=".899" stop-color="#e48d05"/><stop offset="1" stop-color="#de8806"/></linearGradient><path fill="url(#h)" d="M316.81 342.41h10.49v27.08c0 4.49 2.94 6.89 7.43 6.89s7.43-2.4 7.43-6.89v-27.08h10.49v27.08c0 9.65-7.07 16.48-17.86 16.48-10.91 0-17.98-6.83-17.98-16.48v-27.08z"/><linearGradient id="i" x1="93.861" x2="407.462" y1="363.829" y2="363.829" gradientUnits="userSpaceOnUse"><stop offset="0" stop-color="#ffcf41"/><stop offset=".197" stop-color="#fcc93b"/><stop offset=".464" stop-color="#f5b72c"/><stop offset=".771" stop-color="#ea9b12"/><stop offset=".899" stop-color="#e48d05"/><stop offset="1" stop-color="#de8806"/></linearGradient><path fill="url(#i)" d="M364.32 342.41h11.39l6.23 18.1c.96 2.76 2.16 7.07 2.16 7.07h.12s1.2-4.31 2.16-7.07l6.23-18.1h11.38l3.48 42.84h-10.49l-1.32-19.29c-.24-3.24 0-7.19 0-7.19h-.12s-1.44 4.49-2.4 7.19l-4.49 12.4h-8.99l-4.49-12.4c-.96-2.7-2.4-7.19-2.4-7.19h-.12s.24 3.96 0 7.19l-1.32 19.29h-10.55l3.54-42.84z"/><text font-family="Helvetica-Bold" font-size="17.857" letter-spacing="3" transform="translate(127.23 406.739)">Let’s Taste an Apple</text><linearGradient id="j" x1="128.59" x2="368.228" y1="402.183" y2="402.183" gradientUnits="userSpaceOnUse"><stop offset="0" stop-color="#ffcf41"/><stop offset=".197" stop-color="#fcc93b"/><stop offset=".464" stop-color="#f5b72c"/><stop offset=".771" stop-color="#ea9b12"/><stop offset=".899" stop-color="#e48d05"/><stop offset="1" stop-color="#de8806"/></linearGradient><path fill="url(#j)" d="M128.59 393.89h2.69v10.54h6.36v2.31h-9.05v-12.85z"/><linearGradient id="k" x1="128.59" x2="368.228" y1="402.183" y2="402.183" gradientUnits="userSpaceOnUse"><stop offset="0" stop-color="#ffcf41"/><stop offset=".197" stop-color="#fcc93b"/><stop offset=".464" stop-color="#f5b72c"/><stop offset=".771" stop-color="#ea9b12"/><stop offset=".899" stop-color="#e48d05"/><stop offset="1" stop-color="#de8806"/></linearGradient><path fill="url(#k)" d="M151 403.95c-.06.56-.36 1.14-.88 1.72-.81.92-1.95 1.39-3.42 1.39-1.21 0-2.28-.39-3.2-1.17-.92-.78-1.39-2.05-1.39-3.8 0-1.64.42-2.91 1.25-3.78.83-.88 1.92-1.32 3.25-1.32.79 0 1.5.15 2.14.44.63.3 1.16.76 1.57 1.4.37.56.61 1.22.72 1.96.06.44.09 1.06.08 1.88h-6.5c.04.95.33 1.62.9 2.01.34.24.76.36 1.24.36.51 0 .93-.15 1.25-.44.17-.16.33-.38.46-.65H151zm-2.46-2.91c-.04-.66-.24-1.16-.6-1.5-.36-.34-.8-.51-1.33-.51-.58 0-1.02.18-1.34.54s-.52.85-.6 1.46h3.87z"/><linearGradient id="l" x1="128.59" x2="368.228" y1="402.183" y2="402.183" gradientUnits="userSpaceOnUse"><stop offset="0" stop-color="#ffcf41"/><stop offset=".197" stop-color="#fcc93b"/><stop offset=".464" stop-color="#f5b72c"/><stop offset=".771" stop-color="#ea9b12"/><stop offset=".899" stop-color="#e48d05"/><stop offset="1" stop-color="#de8806"/></linearGradient><path fill="url(#l)" d="M160.72 404.97v1.86l-1.18.04c-1.17.04-1.98-.16-2.41-.61-.28-.29-.42-.72-.42-1.32v-5.85h-1.33v-1.77h1.33v-2.65h2.46v2.65h1.54v1.77h-1.54v5.02c0 .39.05.63.15.73.1.1.4.14.91.14h.24c.09 0 .17 0 .25-.01z"/><linearGradient id="m" x1="128.59" x2="368.228" y1="402.183" y2="402.183" gradientUnits="userSpaceOnUse"><stop offset="0" stop-color="#ffcf41"/><stop offset=".197" stop-color="#fcc93b"/><stop offset=".464" stop-color="#f5b72c"/><stop offset=".771" stop-color="#ea9b12"/><stop offset=".899" stop-color="#e48d05"/><stop offset="1" stop-color="#de8806"/></linearGradient><path fill="url(#m)" d="M168.37 395.77c0 .88-.21 1.57-.64 2.08s-1.03.83-1.8.99v-.92c.57-.18.96-.49 1.18-.92.12-.26.17-.51.15-.78h-1.37v-2.29h2.48v1.84z"/><linearGradient id="n" x1="128.59" x2="368.228" y1="402.183" y2="402.183" gradientUnits="userSpaceOnUse"><stop offset="0" stop-color="#ffcf41"/><stop offset=".197" stop-color="#fcc93b"/><stop offset=".464" stop-color="#f5b72c"/><stop offset=".771" stop-color="#ea9b12"/><stop offset=".899" stop-color="#e48d05"/><stop offset="1" stop-color="#de8806"/></linearGradient><path fill="url(#n)" d="M180.97 397.67c.74.48 1.17 1.3 1.28 2.46h-2.49c-.03-.32-.12-.57-.27-.76-.27-.34-.74-.5-1.4-.5-.54 0-.93.08-1.16.25-.23.17-.34.37-.34.59 0 .28.12.49.37.62.24.13 1.11.36 2.59.69.99.23 1.73.58 2.22 1.05.49.48.73 1.07.73 1.79 0 .94-.35 1.71-1.05 2.31-.7.6-1.78.89-3.25.89-1.49 0-2.6-.32-3.31-.95-.71-.63-1.07-1.43-1.07-2.41h2.52c.05.44.17.76.34.94.31.33.88.5 1.71.5.49 0 .88-.07 1.16-.22.29-.15.43-.36.43-.65a.72.72 0 0 0-.35-.64c-.23-.14-1.1-.39-2.59-.75-1.08-.27-1.83-.6-2.28-1-.44-.4-.66-.96-.66-1.71 0-.88.34-1.63 1.03-2.26s1.66-.95 2.91-.95c1.21 0 2.18.24 2.93.71z"/><linearGradient id="o" x1="128.59" x2="368.228" y1="402.183" y2="402.183" gradientUnits="userSpaceOnUse"><stop offset="0" stop-color="#ffcf41"/><stop offset=".197" stop-color="#fcc93b"/><stop offset=".464" stop-color="#f5b72c"/><stop offset=".771" stop-color="#ea9b12"/><stop offset=".899" stop-color="#e48d05"/><stop offset="1" stop-color="#de8806"/></linearGradient><path fill="url(#o)" d="M206 393.89v2.28h-3.85v10.58h-2.7v-10.58h-3.86v-2.28H206z"/><linearGradient id="p" x1="128.59" x2="368.228" y1="402.183" y2="402.183" gradientUnits="userSpaceOnUse"><stop offset="0" stop-color="#ffcf41"/><stop offset=".197" stop-color="#fcc93b"/><stop offset=".464" stop-color="#f5b72c"/><stop offset=".771" stop-color="#ea9b12"/><stop offset=".899" stop-color="#e48d05"/><stop offset="1" stop-color="#de8806"/></linearGradient><path fill="url(#p)" d="M211.29 398.26c.66-.84 1.78-1.25 3.38-1.25 1.04 0 1.96.21 2.77.62.81.41 1.21 1.19 1.21 2.34v4.36c0 .3.01.67.02 1.1.02.33.07.55.15.66.08.12.2.21.37.29v.37h-2.7c-.08-.19-.13-.37-.16-.54-.03-.17-.05-.36-.07-.58-.34.37-.74.69-1.19.95-.53.31-1.14.46-1.81.46-.86 0-1.57-.25-2.13-.74-.56-.49-.84-1.19-.84-2.09 0-1.17.45-2.01 1.35-2.54.49-.29 1.22-.49 2.18-.61l.85-.11c.46-.06.79-.13.99-.22.35-.15.53-.39.53-.71 0-.39-.14-.66-.41-.81-.27-.15-.67-.22-1.19-.22-.59 0-1 .15-1.25.44-.17.21-.29.51-.35.87h-2.4c.06-.82.29-1.5.7-2.04zm1.85 6.68c.23.19.52.29.85.29.53 0 1.03-.16 1.48-.47.45-.31.68-.89.7-1.72v-.92c-.16.1-.32.18-.48.24-.16.06-.38.12-.66.17l-.56.1c-.52.09-.9.21-1.12.34-.38.23-.58.58-.58 1.05.01.43.13.74.37.92z"/><linearGradient id="q" x1="128.59" x2="368.228" y1="402.183" y2="402.183" gradientUnits="userSpaceOnUse"><stop offset="0" stop-color="#ffcf41"/><stop offset=".197" stop-color="#fcc93b"/><stop offset=".464" stop-color="#f5b72c"/><stop offset=".771" stop-color="#ea9b12"/><stop offset=".899" stop-color="#e48d05"/><stop offset="1" stop-color="#de8806"/></linearGradient><path fill="url(#q)" d="M230.99 397.67c.74.48 1.17 1.3 1.28 2.46h-2.49c-.03-.32-.12-.57-.27-.76-.27-.34-.74-.5-1.4-.5-.54 0-.93.08-1.16.25-.23.17-.34.37-.34.59 0 .28.12.49.37.62.24.13 1.11.36 2.59.69.99.23 1.73.58 2.22 1.05.49.48.73 1.07.73 1.79 0 .94-.35 1.71-1.05 2.31-.7.6-1.78.89-3.25.89-1.49 0-2.6-.32-3.31-.95-.71-.63-1.07-1.43-1.07-2.41h2.52c.05.44.17.76.34.94.31.33.88.5 1.71.5.49 0 .88-.07 1.16-.22.29-.15.43-.36.43-.65a.72.72 0 0 0-.35-.64c-.23-.14-1.1-.39-2.59-.75-1.08-.27-1.83-.6-2.28-1-.44-.4-.66-.96-.66-1.71 0-.88.34-1.63 1.03-2.26s1.66-.95 2.91-.95c1.21 0 2.18.24 2.93.71z"/><linearGradient id="r" x1="128.59" x2="368.228" y1="402.183" y2="402.183" gradientUnits="userSpaceOnUse"><stop offset="0" stop-color="#ffcf41"/><stop offset=".197" stop-color="#fcc93b"/><stop offset=".464" stop-color="#f5b72c"/><stop offset=".771" stop-color="#ea9b12"/><stop offset=".899" stop-color="#e48d05"/><stop offset="1" stop-color="#de8806"/></linearGradient><path fill="url(#r)" d="M242.29 404.97v1.86l-1.18.04c-1.17.04-1.98-.16-2.41-.61-.28-.29-.42-.72-.42-1.32v-5.85h-1.33v-1.77h1.33v-2.65h2.46v2.65h1.54v1.77h-1.54v5.02c0 .39.05.63.15.73.1.1.4.14.91.14h.24c.09 0 .17 0 .25-.01z"/><linearGradient id="s" x1="128.59" x2="368.228" y1="402.183" y2="402.183" gradientUnits="userSpaceOnUse"><stop offset="0" stop-color="#ffcf41"/><stop offset=".197" stop-color="#fcc93b"/><stop offset=".464" stop-color="#f5b72c"/><stop offset=".771" stop-color="#ea9b12"/><stop offset=".899" stop-color="#e48d05"/><stop offset="1" stop-color="#de8806"/></linearGradient><path fill="url(#s)" d="M255.59 403.95c-.06.56-.36 1.14-.88 1.72-.81.92-1.95 1.39-3.42 1.39-1.21 0-2.28-.39-3.2-1.17-.92-.78-1.39-2.05-1.39-3.8 0-1.64.42-2.91 1.25-3.78.83-.88 1.92-1.32 3.25-1.32.79 0 1.5.15 2.14.44.63.3 1.16.76 1.57 1.4.37.56.61 1.22.72 1.96.06.44.09 1.06.08 1.88h-6.5c.04.95.33 1.62.9 2.01.34.24.76.36 1.24.36.51 0 .93-.15 1.25-.44.17-.16.33-.38.46-.65h2.53zm-2.45-2.91c-.04-.66-.24-1.16-.6-1.5-.36-.34-.8-.51-1.33-.51-.58 0-1.02.18-1.34.54s-.52.85-.6 1.46h3.87z"/><linearGradient id="t" x1="128.59" x2="368.228" y1="402.183" y2="402.183" gradientUnits="userSpaceOnUse"><stop offset="0" stop-color="#ffcf41"/><stop offset=".197" stop-color="#fcc93b"/><stop offset=".464" stop-color="#f5b72c"/><stop offset=".771" stop-color="#ea9b12"/><stop offset=".899" stop-color="#e48d05"/><stop offset="1" stop-color="#de8806"/></linearGradient><path fill="url(#t)" d="M269.85 398.26c.66-.84 1.78-1.25 3.38-1.25 1.04 0 1.96.21 2.77.62.81.41 1.21 1.19 1.21 2.34v4.36c0 .3.01.67.02 1.1.02.33.07.55.15.66.08.12.2.21.37.29v.37h-2.7c-.08-.19-.13-.37-.16-.54-.03-.17-.05-.36-.07-.58-.34.37-.74.69-1.19.95-.54.31-1.14.46-1.81.46-.86 0-1.57-.25-2.13-.74-.56-.49-.84-1.19-.84-2.09 0-1.17.45-2.01 1.35-2.54.49-.29 1.22-.49 2.18-.61l.85-.11c.46-.06.79-.13.99-.22.35-.15.53-.39.53-.71 0-.39-.13-.66-.41-.81-.27-.15-.67-.22-1.19-.22-.59 0-1 .15-1.25.44-.17.21-.29.51-.35.87h-2.4c.06-.82.29-1.5.7-2.04zm1.85 6.68c.23.19.52.29.85.29.54 0 1.03-.16 1.48-.47.45-.31.68-.89.7-1.72v-.92c-.16.1-.32.18-.48.24-.16.06-.38.12-.66.17l-.56.1c-.52.09-.9.21-1.12.34-.38.23-.58.58-.58 1.05.01.43.13.74.37.92z"/><linearGradient id="u" x1="128.59" x2="368.228" y1="402.183" y2="402.183" gradientUnits="userSpaceOnUse"><stop offset="0" stop-color="#ffcf41"/><stop offset=".197" stop-color="#fcc93b"/><stop offset=".464" stop-color="#f5b72c"/><stop offset=".771" stop-color="#ea9b12"/><stop offset=".899" stop-color="#e48d05"/><stop offset="1" stop-color="#de8806"/></linearGradient><path fill="url(#u)" d="M287.47 399.08c-.84 0-1.42.36-1.74 1.07-.16.38-.24.86-.24 1.45v5.14h-2.48v-9.49h2.4v1.39c.32-.49.62-.84.91-1.05.51-.38 1.16-.58 1.94-.58.98 0 1.79.26 2.41.77s.94 1.37.94 2.56v6.4h-2.55v-5.78c0-.5-.07-.88-.2-1.15-.24-.49-.7-.73-1.39-.73z"/><linearGradient id="v" x1="128.59" x2="368.228" y1="402.183" y2="402.183" gradientUnits="userSpaceOnUse"><stop offset="0" stop-color="#ffcf41"/><stop offset=".197" stop-color="#fcc93b"/><stop offset=".464" stop-color="#f5b72c"/><stop offset=".771" stop-color="#ea9b12"/><stop offset=".899" stop-color="#e48d05"/><stop offset="1" stop-color="#de8806"/></linearGradient><path fill="url(#v)" d="M313.73 404.1H309l-.89 2.64h-2.81l4.59-12.85h3.03l4.55 12.85h-2.91l-.83-2.64zm-.75-2.22-1.6-5.06-1.66 5.06h3.26z"/><linearGradient id="w" x1="128.59" x2="368.228" y1="402.183" y2="402.183" gradientUnits="userSpaceOnUse"><stop offset="0" stop-color="#ffcf41"/><stop offset=".197" stop-color="#fcc93b"/><stop offset=".464" stop-color="#f5b72c"/><stop offset=".771" stop-color="#ea9b12"/><stop offset=".899" stop-color="#e48d05"/><stop offset="1" stop-color="#de8806"/></linearGradient><path fill="url(#w)" d="M330.44 398.26c.77.82 1.15 2.02 1.15 3.61 0 1.67-.38 2.95-1.13 3.83-.75.88-1.72 1.32-2.91 1.32-.76 0-1.38-.19-1.88-.57-.27-.21-.54-.51-.8-.92v4.95h-2.46v-13.24h2.38v1.4c.27-.41.55-.74.85-.98.55-.42 1.21-.64 1.97-.64 1.11.01 2.06.42 2.83 1.24zm-1.41 3.73c0-.73-.17-1.38-.5-1.94-.33-.56-.88-.85-1.63-.85-.9 0-1.52.43-1.86 1.28-.17.45-.26 1.03-.26 1.73 0 1.1.29 1.88.88 2.33.35.26.76.39 1.24.39.69 0 1.22-.27 1.58-.8.36-.54.55-1.25.55-2.14z"/><linearGradient id="x" x1="128.59" x2="368.228" y1="402.183" y2="402.183" gradientUnits="userSpaceOnUse"><stop offset="0" stop-color="#ffcf41"/><stop offset=".197" stop-color="#fcc93b"/><stop offset=".464" stop-color="#f5b72c"/><stop offset=".771" stop-color="#ea9b12"/><stop offset=".899" stop-color="#e48d05"/><stop offset="1" stop-color="#de8806"/></linearGradient><path fill="url(#x)" d="M344.92 398.26c.77.82 1.15 2.02 1.15 3.61 0 1.67-.38 2.95-1.13 3.83-.75.88-1.72 1.32-2.91 1.32-.76 0-1.38-.19-1.88-.57-.27-.21-.54-.51-.8-.92v4.95h-2.46v-13.24h2.38v1.4c.27-.41.55-.74.85-.98.55-.42 1.21-.64 1.97-.64 1.11.01 2.05.42 2.83 1.24zm-1.42 3.73c0-.73-.17-1.38-.5-1.94-.33-.56-.88-.85-1.63-.85-.9 0-1.52.43-1.86 1.28-.17.45-.26 1.03-.26 1.73 0 1.1.29 1.88.88 2.33.35.26.76.39 1.24.39.69 0 1.22-.27 1.58-.8.37-.54.55-1.25.55-2.14z"/><linearGradient id="y" x1="128.59" x2="368.228" y1="402.183" y2="402.183" gradientUnits="userSpaceOnUse"><stop offset="0" stop-color="#ffcf41"/><stop offset=".197" stop-color="#fcc93b"/><stop offset=".464" stop-color="#f5b72c"/><stop offset=".771" stop-color="#ea9b12"/><stop offset=".899" stop-color="#e48d05"/><stop offset="1" stop-color="#de8806"/></linearGradient><path fill="url(#y)" d="M351.49 393.89h2.49v12.85h-2.49v-12.85z"/><linearGradient id="z" x1="128.59" x2="368.228" y1="402.183" y2="402.183" gradientUnits="userSpaceOnUse"><stop offset="0" stop-color="#ffcf41"/><stop offset=".197" stop-color="#fcc93b"/><stop offset=".464" stop-color="#f5b72c"/><stop offset=".771" stop-color="#ea9b12"/><stop offset=".899" stop-color="#e48d05"/><stop offset="1" stop-color="#de8806"/></linearGradient><path fill="url(#z)" d="M368.1 403.95c-.06.56-.36 1.14-.88 1.72-.81.92-1.95 1.39-3.42 1.39-1.21 0-2.28-.39-3.2-1.17-.92-.78-1.39-2.05-1.39-3.8 0-1.64.42-2.91 1.25-3.78s1.92-1.32 3.25-1.32c.79 0 1.5.15 2.14.44.63.3 1.16.76 1.57 1.4.37.56.61 1.22.72 1.96.06.44.09 1.06.08 1.88h-6.5c.04.95.33 1.62.9 2.01.34.24.75.36 1.24.36.51 0 .93-.15 1.25-.44.17-.16.33-.38.46-.65h2.53zm-2.46-2.91c-.04-.66-.24-1.16-.6-1.5-.36-.34-.8-.51-1.33-.51-.58 0-1.02.18-1.34.54-.32.36-.52.85-.6 1.46h3.87z"/></svg>