<svg xmlns="http://www.w3.org/2000/svg" xml:space="preserve" id="Layer_1" x="0" y="0" version="1.1" viewBox="0 0 305 46"><style>.st0{fill:#0f9b0f}</style><path d="M70.47 23.61v-8.92c0-.64.04-.67.63-.43 3 1.2 5.76 2.75 7.99 5.14 2.17 2.33 3.43 5.08 3.69 8.25.24 2.95.03 5.9.1 8.85.04 1.67.41 3.25 1.31 4.68.57.9 1.28 1.64 2.23 2.12.34.17.31.3.02.48-.89.54-1.87.73-2.89.79-2.71.15-5.11-.75-7.28-2.26-3.57-2.48-5.45-5.95-5.73-10.27-.19-3.03-.01-6.06-.07-8.43" class="st0"/><path id="XMLID_00000064311912560324361290000015993965542896721077_" d="M82.92 7.43c0 3.88-2.81 6.69-6.69 6.69s-6.69-2.81-6.69-6.69c0-3.96 2.81-6.77 6.69-6.77s6.69 2.8 6.69 6.77" class="st0"/><path id="XMLID_00000160899830655776477130000005546034881877325191_" d="M82.89 8.06c-.27-2.9-2.46-4.9-5.42-4.9-3.16 0-5.44 2.28-5.44 5.51 0 2.96 2 5.14 4.84 5.42 3.34-.28 5.75-2.69 6.02-6.03" class="st0"/><path id="XMLID_00000082339869280454436510000002400838649098125959_" d="M76.78 5.35c0 1.61-1.17 2.78-2.78 2.78s-2.78-1.17-2.78-2.78c0-1.65 1.17-2.81 2.78-2.81 1.61-.01 2.78 1.16 2.78 2.81" class="st0"/><path id="XMLID_00000111153489840883409910000004768653332124029113_" d="M74.18 4.43c0 .62-.45 1.08-1.08 1.08-.62 0-1.08-.45-1.08-1.08 0-.64.45-1.09 1.08-1.09s1.08.46 1.08 1.09" class="st0"/><path d="M91.68 37.33c.23-1.02.6-1.86 1.08-2.52l16.96-21.65H98.27c-.78 0-1.54-.16-2.29-.48-.74-.32-1.42-.79-2.02-1.39-1.17-1.23-1.76-2.63-1.76-4.19 0-.78.17-1.56.5-2.34s.79-1.45 1.38-1.99c1.21-1.11 2.61-1.67 4.19-1.67h24.9q.735 0 1.44.18c1.5.33 2.71 1.07 3.62 2.21s1.36 2.41 1.36 3.79c0 .84-.18 1.66-.53 2.46-.41.68-.77 1.22-1.08 1.61l-16.82 21.3h14.71q2.52 0 4.23 1.74c1.71 1.74 1.71 2.6 1.71 4.32q0 2.52-1.77 4.26t-4.23 1.74H98.03c-1.89 0-3.46-.58-4.69-1.73s-1.85-2.58-1.85-4.28c.01-.45.07-.9.19-1.37m41.6 1.99c0-1.05.02-1.82.06-2.29l4.92-28.8q.375-2.52 1.83-4.38c1.455-1.86 2.17-2.12 3.62-2.65 1.25-.47 2.47-.7 3.66-.7q3.045 0 5.43 1.8c2.385 1.8 2.66 2.8 3.21 4.79l4.42 15.18 4.45-15.18c.61-2.01 1.7-3.61 3.3-4.8C169.77 1.1 171.57.5 173.59.5c1.17 0 2.39.23 3.66.7 1.46.53 2.67 1.41 3.6 2.64.94 1.23 1.55 2.7 1.85 4.39l4.86 28.8c.08.47.12 1.23.12 2.29-.18 1.68-.91 3.08-2.21 4.19s-2.82 1.67-4.56 1.67c-.76 0-1.52-.12-2.29-.35-1.27-.45-2.31-1.17-3.13-2.17s-1.3-2.13-1.44-3.4l-2.11-17.4-5.5 18.22c-.43 1.48-.94 2.6-1.54 3.35s-1.34 1.27-2.24 1.57c-.96.33-1.76.5-2.4.5-1.33 0-2.49-.46-3.49-1.38s-1.75-2.27-2.26-4.04l-5.6-18.22-2.05 17.4a6.35 6.35 0 0 1-1.44 3.4c-.82 1-1.86 1.72-3.11 2.17-.78.23-1.54.35-2.29.35-1.72 0-3.23-.56-4.54-1.67-1.28-1.12-2.03-2.51-2.2-4.19m60.23-3.96c-.88-1.25-1.62-2.57-2.21-3.97-.6-1.4-1.05-2.8-1.35-4.22s-.45-2.85-.45-4.29c0-1.41.15-2.82.45-4.25s.76-2.85 1.36-4.26c.61-1.42 1.34-2.74 2.2-3.97 1.41-2.05 3.11-3.82 5.1-5.3s4.17-2.62 6.55-3.41C207.53.9 209.97.5 212.47.5c1.87 0 3.73.22 5.55.67 1.83.45 3.57 1.11 5.24 1.98s3.19 1.91 4.57 3.12 2.58 2.59 3.62 4.13c2.68 3.87 4.01 8.03 4.01 12.48 0 2.21-.34 4.37-1.03 6.49-.68 2.12-1.68 4.12-2.99 5.99-1.04 1.5-2.27 2.89-3.69 4.15q-2.145 1.89-4.5 3.12c-2.355 1.23-3.3 1.47-5.17 1.95s-3.75.72-5.62.72c-2.5 0-4.94-.39-7.31-1.17s-4.56-1.92-6.56-3.43-3.69-3.29-5.08-5.34m9.73-12.48c0 1.93.41 3.69 1.24 5.27s1.94 2.81 3.34 3.68 2.92 1.3 4.59 1.3c.59 0 1.19-.06 1.82-.18 1.11-.23 2.12-.64 3.02-1.23s1.69-1.33 2.39-2.23c.69-.9 1.23-1.9 1.6-3a11.1 11.1 0 0 0 .38-5.49c-.29-1.7-.86-3.16-1.71-4.39s-1.92-2.2-3.21-2.9-2.7-1.05-4.22-1.05c-1.7 0-3.25.43-4.66 1.3s-2.52 2.09-3.34 3.68c-.83 1.58-1.24 3.33-1.24 5.24" class="st0"/></svg>