<svg xmlns="http://www.w3.org/2000/svg" xml:space="preserve" viewBox="0 0 306 46"><linearGradient id="a" x1="16.418" x2="27.414" y1="12.663" y2="12.663" gradientTransform="matrix(1 0 0 -1 0 48)" gradientUnits="userSpaceOnUse"><stop offset="0" stop-color="#ffcf41"/><stop offset=".197" stop-color="#fcc93b"/><stop offset=".464" stop-color="#f5b72c"/><stop offset=".771" stop-color="#ea9b12"/><stop offset=".899" stop-color="#e48d05"/><stop offset="1" stop-color="#de8806"/></linearGradient><path fill="url(#a)" d="M16.42 42.85c.6 1.05 1.21 2.1 1.81 3.15 3.06-5.94 6.12-11.89 9.18-17.83-.51-1.17-1.03-2.33-1.54-3.5l-9.45 18.18"/><linearGradient id="b" x1="0" x2="27.385" y1="25.007" y2="25.007" gradientTransform="matrix(1 0 0 -1 0 48)" gradientUnits="userSpaceOnUse"><stop offset="0" stop-color="#ffcf41"/><stop offset=".197" stop-color="#fcc93b"/><stop offset=".464" stop-color="#f5b72c"/><stop offset=".771" stop-color="#ea9b12"/><stop offset=".899" stop-color="#e48d05"/><stop offset="1" stop-color="#de8806"/></linearGradient><path fill="url(#b)" d="M0 45.99h3.46C11.43 30.66 19.41 15.33 27.38 0c-1.16.02-2.31.03-3.47.05C15.94 15.36 7.97 30.67 0 45.99"/><linearGradient id="c" x1="25.62" x2="47.976" y1="28.149" y2="28.149" gradientTransform="matrix(1 0 0 -1 0 48)" gradientUnits="userSpaceOnUse"><stop offset="0" stop-color="#ffcf41"/><stop offset=".197" stop-color="#fcc93b"/><stop offset=".464" stop-color="#f5b72c"/><stop offset=".771" stop-color="#ea9b12"/><stop offset=".899" stop-color="#e48d05"/><stop offset="1" stop-color="#de8806"/></linearGradient><path fill="url(#c)" d="M47.98 39.7h-3.46c-6.3-12.1-12.6-24.2-18.9-36.31.05-.09.83-1.6.88-1.69.05-.09.84-1.61.89-1.7 6.86 13.23 13.72 26.47 20.59 39.7z"/><linearGradient id="d" x1="31.196" x2="58.575" y1="24.992" y2="24.992" gradientTransform="matrix(1 0 0 -1 0 48)" gradientUnits="userSpaceOnUse"><stop offset="0" stop-color="#ffcf41"/><stop offset=".197" stop-color="#fcc93b"/><stop offset=".464" stop-color="#f5b72c"/><stop offset=".771" stop-color="#ea9b12"/><stop offset=".899" stop-color="#e48d05"/><stop offset="1" stop-color="#de8806"/></linearGradient><path fill="url(#d)" d="M58.57 45.99h-3.42C47.17 30.67 39.18 15.35 31.2.02h3.45c7.98 15.32 15.95 30.65 23.92 45.97"/><linearGradient id="e" x1="25.557" x2="40.749" y1="21.236" y2="21.236" gradientTransform="matrix(1 0 0 -1 0 48)" gradientUnits="userSpaceOnUse"><stop offset="0" stop-color="#ffcf41"/><stop offset=".197" stop-color="#fcc93b"/><stop offset=".464" stop-color="#f5b72c"/><stop offset=".771" stop-color="#ea9b12"/><stop offset=".899" stop-color="#e48d05"/><stop offset="1" stop-color="#de8806"/></linearGradient><path fill="url(#e)" d="m40.75 39.68-3.43.03c-3.92-7.53-7.84-15.06-11.76-22.58.02-.04.43-.83.86-1.65.02-.04.43-.83.87-1.67l13.46 25.87z"/><linearGradient id="f" x1="10.356" x2="27.283" y1="22.872" y2="22.872" gradientTransform="matrix(1 0 0 -1 0 48)" gradientUnits="userSpaceOnUse"><stop offset="0" stop-color="#ffcf41"/><stop offset=".197" stop-color="#fcc93b"/><stop offset=".464" stop-color="#f5b72c"/><stop offset=".771" stop-color="#ea9b12"/><stop offset=".899" stop-color="#e48d05"/><stop offset="1" stop-color="#de8806"/></linearGradient><path fill="url(#f)" d="m10.36 39.69 3.46-.01c4.49-8.62 8.98-17.24 13.46-25.87-.59-1.08-1.18-2.17-1.76-3.25-5.05 9.71-10.11 19.42-15.16 29.13"/><linearGradient id="g" x1="38.972" x2="55.158" y1="3.572" y2="3.572" gradientTransform="matrix(1 0 0 -1 0 48)" gradientUnits="userSpaceOnUse"><stop offset="0" stop-color="#ffcf41"/><stop offset=".197" stop-color="#fcc93b"/><stop offset=".464" stop-color="#f5b72c"/><stop offset=".771" stop-color="#ea9b12"/><stop offset=".899" stop-color="#e48d05"/><stop offset="1" stop-color="#de8806"/></linearGradient><path fill="url(#g)" d="M55.16 45.99c-.53-1.02-1.07-2.04-1.6-3.07l-14.59-.06 1.28 3.13h14.91z"/><linearGradient id="h" x1="3.44" x2="18.231" y1="3.577" y2="3.577" gradientTransform="matrix(1 0 0 -1 0 48)" gradientUnits="userSpaceOnUse"><stop offset="0" stop-color="#ffcf41"/><stop offset=".197" stop-color="#fcc93b"/><stop offset=".464" stop-color="#f5b72c"/><stop offset=".771" stop-color="#ea9b12"/><stop offset=".899" stop-color="#e48d05"/><stop offset="1" stop-color="#de8806"/></linearGradient><path fill="url(#h)" d="M18.23 46c-.6-1.05-1.21-2.1-1.81-3.15-1.89.01-3.78.02-5.67.02-1.89 0-3.77-.01-5.66-.02-.31.47-.63 1.01-.94 1.6-.28.54-.52 1.06-.71 1.54 4.93 0 9.86.01 14.79.01z"/><linearGradient id="i" x1="67.693" x2="305.101" y1="33.012" y2="33.012" gradientTransform="matrix(1 0 0 -1 0 48)" gradientUnits="userSpaceOnUse"><stop offset="0" stop-color="#ffcf41"/><stop offset=".197" stop-color="#fcc93b"/><stop offset=".464" stop-color="#f5b72c"/><stop offset=".771" stop-color="#ea9b12"/><stop offset=".899" stop-color="#e48d05"/><stop offset="1" stop-color="#de8806"/></linearGradient><linearGradient id="j" x1="67.663" x2="305.132" y1="14.988" y2="14.988" gradientUnits="userSpaceOnUse"><stop offset="0" stop-color="#ffcf41"/><stop offset=".197" stop-color="#fcc93b"/><stop offset=".464" stop-color="#f5b72c"/><stop offset=".771" stop-color="#ea9b12"/><stop offset=".899" stop-color="#e48d05"/><stop offset="1" stop-color="#de8806"/></linearGradient><path fill="url(#i)" stroke="url(#j)" stroke-miterlimit="10" stroke-width=".043" d="M86.31 21.74h-9.24l-2.27 7.69h-7.11L77.25.53h9.05l10.01 28.9h-7.48l-2.52-7.69zm-1.11-5.03-2.05-6.17c-.56-1.69-1.11-3.61-1.6-5.23h-.08c-.46 1.63-.89 3.56-1.4 5.24l-1.93 6.17h7.06zM110.04.28c4.18 0 7.14.88 9.07 2.37 1.88 1.41 3.22 3.83 3.22 6.8 0 2.73-.9 5.21-2.67 6.81-2.35 2.16-5.78 3.16-10.05 3.16-1.02 0-1.91-.08-2.56-.19v10.21h-6.69V.91c2.12-.34 5.15-.63 9.68-.63zm-3 13.72c.62.15 1.41.21 2.55.21 3.64 0 6.05-1.67 6.05-4.67 0-2.71-2.06-4.15-5.54-4.15-1.53 0-2.54.11-3.06.22V14zM136.41.28c4.18 0 7.14.88 9.07 2.37 1.88 1.41 3.22 3.83 3.22 6.8 0 2.73-.9 5.21-2.67 6.81-2.35 2.16-5.78 3.16-10.05 3.16-1.02 0-1.91-.08-2.56-.19v10.21h-6.69V.91c2.11-.34 5.14-.63 9.68-.63zm-3 13.72c.62.15 1.41.21 2.55.21 3.64 0 6.05-1.67 6.05-4.67 0-2.71-2.06-4.15-5.54-4.15-1.53 0-2.54.11-3.06.22V14zM153.08.54h6.76v23.18h12.72v5.71h-19.47V.54zm42.13 16.83h-11.85v6.55h13.22v5.51H176.6V.54h19.32v5.51h-12.57v5.81h11.84v5.51h.02zm31.69 4.37h-9.24l-2.27 7.69h-7.11l9.56-28.9h9.05l10.01 28.9h-7.48l-2.52-7.69zm-1.11-5.03-2.05-6.17c-.56-1.69-1.11-3.61-1.6-5.23h-.08c-.46 1.63-.89 3.56-1.4 5.24l-1.93 6.17h7.06zm15.65 5.65c1.9 1.02 4.82 2.04 7.98 2.04 3.08 0 4.74-1.2 4.74-3.1 0-1.68-1.39-2.72-5.14-3.82-5.05-1.47-8.71-3.97-8.71-8.72 0-5.02 4.44-8.74 11.4-8.74 3.71 0 6.26.7 8.23 1.59l-1.61 5.38c-1.24-.56-3.57-1.5-6.74-1.5-2.96 0-4.37 1.27-4.37 2.73 0 1.87 1.82 2.65 5.74 3.91 5.48 1.78 8.14 4.35 8.14 8.78 0 4.66-3.58 9.03-12.21 9.03-3.55 0-7.13-.99-8.93-2.01l1.48-5.57zM272.67.54v28.9h-6.76V.54h6.76zm13.2 21.2-2.27 7.69h-7.11l9.56-28.9h9.05l10.01 28.9h-7.48l-2.52-7.69h-9.24zm8.12-5.03-2.05-6.17c-.56-1.69-1.11-3.61-1.6-5.23h-.08c-.46 1.63-.89 3.56-1.4 5.24l-1.93 6.17h7.06z"/><linearGradient id="k" x1="91.073" x2="281.719" y1="7.971" y2="7.971" gradientTransform="matrix(1 0 0 -1 0 48)" gradientUnits="userSpaceOnUse"><stop offset="0" stop-color="#ffcf41"/><stop offset=".197" stop-color="#fcc93b"/><stop offset=".464" stop-color="#f5b72c"/><stop offset=".771" stop-color="#ea9b12"/><stop offset=".899" stop-color="#e48d05"/><stop offset="1" stop-color="#de8806"/></linearGradient><linearGradient id="l" x1="91.052" x2="281.741" y1="40.029" y2="40.029" gradientUnits="userSpaceOnUse"><stop offset="0" stop-color="#ffcf41"/><stop offset=".197" stop-color="#fcc93b"/><stop offset=".464" stop-color="#f5b72c"/><stop offset=".771" stop-color="#ea9b12"/><stop offset=".899" stop-color="#e48d05"/><stop offset="1" stop-color="#de8806"/></linearGradient><path fill="url(#k)" stroke="url(#l)" stroke-miterlimit="10" stroke-width=".043" d="M91.07 34.62h2.05v7.03h3.86v1.73h-5.9l-.01-8.76zm14.28 7.39c.72 0 1.31-.08 1.91-.29l.28 1.38c-.72.3-1.55.44-2.46.44-2.27 0-3.59-1.29-3.59-3.28 0-1.44.96-3.4 3.39-3.4 2.27 0 3.03 1.78 3.03 3.24 0 .31-.04.61-.08.75h-4.4c.08.76.96 1.16 1.92 1.16zm.65-2.57c0-.36-.21-1.23-1.23-1.23-.92 0-1.29.75-1.36 1.23H106zm9.25-4.27v1.85h1.47v1.54h-1.47v2.11c0 .78.15 1.19.82 1.19.28 0 .5-.03.63-.07l.02 1.56c-.26.1-.76.19-1.35.19-.68 0-1.24-.26-1.56-.6-.37-.39-.54-1.04-.54-1.91v-2.47h-.87v-1.54h.87v-1.39l1.98-.46zm9.1-.71c-.41 1.3-.98 2.61-1.58 3.6l-1.29.11c.4-1.12.72-2.41.91-3.59l1.96-.12zm3.82 7.14c.39.24 1.24.52 1.86.52.64 0 .9-.2.9-.51 0-.33-.2-.47-.99-.69-1.4-.38-1.97-1.12-1.96-1.93 0-1.21 1.06-2.12 2.72-2.12.81 0 1.54.19 1.94.4l-.36 1.4c-.3-.15-.93-.39-1.52-.39-.49 0-.79.17-.79.5 0 .31.28.47 1.11.71 1.28.37 1.83.98 1.85 1.98 0 1.15-.91 2.08-2.88 2.08-.92 0-1.7-.2-2.24-.48l.36-1.47zm18.78-6.43v1.85h1.47v1.54h-1.47v2.11c0 .78.15 1.19.82 1.19.28 0 .5-.03.63-.07l.02 1.56c-.26.1-.76.19-1.35.19-.68 0-1.24-.26-1.56-.6-.37-.39-.54-1.04-.54-1.91v-2.47h-.87v-1.54h.87v-1.39l1.98-.46zm10.4 8.21-.12-.63h-.05c-.43.51-1.12.79-1.93.79-1.39 0-2.16-.97-2.16-1.95 0-1.65 1.47-2.47 3.96-2.47v-.06c0-.28-.14-.81-1.24-.8-.69 0-1.45.25-1.88.51l-.38-1.31c.47-.27 1.37-.6 2.61-.6 2.15 0 2.93 1.22 2.93 2.78v2.17c0 .64.04 1.24.1 1.57h-1.84zm-.23-2.98c-1.19-.01-1.99.26-1.99.97 0 .47.33.73.83.73.55 0 .99-.38 1.12-.79.03-.11.04-.24.04-.35v-.56zm7.51 1.2c.39.24 1.24.52 1.86.52.64 0 .9-.2.9-.51 0-.33-.2-.47-.99-.69-1.4-.38-1.97-1.12-1.96-1.93 0-1.21 1.06-2.12 2.72-2.12.81 0 1.54.19 1.94.4l-.36 1.4c-.3-.15-.93-.39-1.52-.39-.49 0-.79.17-.79.5 0 .31.28.47 1.11.71 1.28.37 1.83.98 1.85 1.98 0 1.15-.91 2.08-2.88 2.08-.92 0-1.7-.2-2.24-.48l.36-1.47zm12.15-6.43v1.85h1.47v1.54h-1.47v2.11c0 .78.15 1.19.82 1.19.28 0 .5-.03.63-.07l.02 1.56c-.26.1-.76.19-1.35.19-.68 0-1.24-.26-1.56-.6-.37-.39-.54-1.04-.54-1.91v-2.47h-.87v-1.54h.87v-1.39l1.98-.46zm9.97 6.84c.72 0 1.31-.08 1.91-.29l.28 1.38c-.72.3-1.55.44-2.46.44-2.27 0-3.59-1.29-3.59-3.28 0-1.44.96-3.4 3.39-3.4 2.27 0 3.03 1.78 3.03 3.24 0 .31-.04.61-.08.75h-4.4c.07.76.95 1.16 1.92 1.16zm.64-2.57c0-.36-.21-1.23-1.23-1.23-.92 0-1.29.75-1.36 1.23h2.59zm17.47 3.94-.12-.63h-.05c-.43.51-1.12.79-1.93.79-1.39 0-2.16-.97-2.16-1.95 0-1.65 1.47-2.47 3.96-2.47v-.06c0-.28-.14-.81-1.24-.8-.69 0-1.45.25-1.88.51l-.38-1.31c.47-.27 1.37-.6 2.61-.6 2.15 0 2.93 1.22 2.93 2.78v2.17c0 .64.04 1.24.1 1.57h-1.84zm-.23-2.98c-1.19-.01-1.99.26-1.99.97 0 .47.33.73.83.73.55 0 .99-.38 1.12-.79.03-.11.04-.24.04-.35v-.56zm7.51-1.31c0-.82-.02-1.51-.05-2.07h1.78l.09.93h.04c.23-.38.9-1.09 2.08-1.09 1.32 0 2.44.83 2.44 2.86v3.66h-2.05V40c0-.91-.34-1.49-1.12-1.49-.62 0-.97.44-1.11.81-.05.12-.06.3-.06.46v3.61h-2.05l.01-4.3zm20.82 1.96-.69 2.33h-2.15l2.9-8.77h2.74l3.03 8.77h-2.27l-.76-2.33h-2.8zm2.47-1.53-.62-1.87c-.17-.51-.34-1.1-.49-1.59h-.03c-.14.49-.27 1.08-.42 1.59l-.59 1.87h2.15zm8.31-.32c0-.86-.02-1.59-.05-2.18h1.78l.09.94h.03c.53-.72 1.33-1.1 2.35-1.1 1.38 0 2.84 1.11 2.84 3.23 0 2.34-1.62 3.45-3.13 3.45-.83 0-1.52-.3-1.83-.76h-.03v3.21h-2.05V39.2zm2.05 1.33c0 .13.01.25.02.37.13.58.65 1.09 1.34 1.09.93 0 1.53-.67 1.53-1.77 0-.95-.5-1.76-1.49-1.76-.65 0-1.23.48-1.37 1.15-.02.11-.03.21-.03.32v.6zm10.13-1.33c0-.86-.02-1.59-.05-2.18h1.78l.09.94h.03c.53-.72 1.33-1.1 2.35-1.1 1.38 0 2.84 1.11 2.84 3.23 0 2.34-1.62 3.45-3.13 3.45-.83 0-1.52-.3-1.83-.76h-.03v3.21h-2.05V39.2zm2.05 1.33c0 .13.01.25.02.37.13.58.65 1.09 1.34 1.09.93 0 1.53-.67 1.53-1.77 0-.95-.5-1.76-1.49-1.76-.65 0-1.23.48-1.37 1.15-.02.11-.03.21-.03.32v.6zm10.14-6.46h2.05v9.31h-2.05v-9.31zm11.06 7.94c.72 0 1.31-.08 1.91-.29l.28 1.38c-.72.3-1.55.44-2.46.44-2.27 0-3.59-1.29-3.59-3.28 0-1.44.96-3.4 3.39-3.4 2.27 0 3.03 1.78 3.03 3.24 0 .31-.04.61-.08.75h-4.4c.07.76.95 1.16 1.92 1.16zm.64-2.57c0-.36-.21-1.23-1.23-1.23-.92 0-1.29.75-1.36 1.23h2.59z"/></svg>